<svg width="145" height="109" viewBox="0 0 145 109" fill="none" xmlns="http://www.w3.org/2000/svg">
<path d="M54.375 54.375C61.5856 54.375 68.5008 51.5106 73.5995 46.412C78.6981 41.3133 81.5625 34.3981 81.5625 27.1875C81.5625 19.9769 78.6981 13.0617 73.5995 7.96304C68.5008 2.86439 61.5856 0 54.375 0C47.1644 0 40.2492 2.86439 35.1505 7.96304C30.0519 13.0617 27.1875 19.9769 27.1875 27.1875C27.1875 34.3981 30.0519 41.3133 35.1505 46.412C40.2492 51.5106 47.1644 54.375 54.375 54.375ZM72.5 27.1875C72.5 31.9945 70.5904 36.6047 67.1913 40.0038C63.7922 43.4029 59.182 45.3125 54.375 45.3125C49.568 45.3125 44.9578 43.4029 41.5587 40.0038C38.1596 36.6047 36.25 31.9945 36.25 27.1875C36.25 22.3805 38.1596 17.7703 41.5587 14.3712C44.9578 10.9721 49.568 9.0625 54.375 9.0625C59.182 9.0625 63.7922 10.9721 67.1913 14.3712C70.5904 17.7703 72.5 22.3805 72.5 27.1875ZM108.75 99.6875C108.75 108.75 99.6875 108.75 99.6875 108.75H9.0625C9.0625 108.75 0 108.75 0 99.6875C0 90.625 9.0625 63.4375 54.375 63.4375C99.6875 63.4375 108.75 90.625 108.75 99.6875ZM99.6875 99.6513C99.6784 97.4219 98.2919 90.7156 92.1475 84.5713C86.2388 78.6625 75.1191 72.5 54.375 72.5C33.6219 72.5 22.5112 78.6625 16.6025 84.5713C10.4581 90.7156 9.08062 97.4219 9.0625 99.6513H99.6875Z" fill="#FAAC4F"/>
<path fill-rule="evenodd" clip-rule="evenodd" d="M143.677 28.511C144.099 28.9319 144.434 29.432 144.662 29.9825C144.891 30.533 145.008 31.1231 145.008 31.7192C145.008 32.3152 144.891 32.9053 144.662 33.4558C144.434 34.0063 144.099 34.5064 143.677 34.9273L116.49 62.1148C116.069 62.5368 115.569 62.8716 115.018 63.1C114.468 63.3284 113.877 63.446 113.281 63.446C112.685 63.446 112.095 63.3284 111.545 63.1C110.994 62.8716 110.494 62.5368 110.073 62.1148L96.4795 48.521C95.6287 47.6702 95.1507 46.5162 95.1507 45.3129C95.1507 44.1096 95.6287 42.9556 96.4795 42.1048C97.3304 41.2539 98.4844 40.7759 99.6877 40.7759C100.891 40.7759 102.045 41.2539 102.896 42.1048L113.281 52.4995L137.261 28.511C137.682 28.0891 138.182 27.7543 138.732 27.5258C139.283 27.2974 139.873 27.1798 140.469 27.1798C141.065 27.1798 141.655 27.2974 142.206 27.5258C142.756 27.7543 143.256 28.0891 143.677 28.511Z" fill="#FAAC4F"/>
</svg>
