<svg width="126" height="99" viewBox="0 0 126 99" fill="none" xmlns="http://www.w3.org/2000/svg">
<path d="M125.64 47.745L112.14 16.245C111.796 15.4316 111.219 14.7376 110.483 14.2495C109.747 13.7614 108.883 13.5007 108 13.5H94.5V4.5C94.5 3.30653 94.0259 2.16193 93.182 1.31802C92.3381 0.474107 91.1935 0 90 0H4.5C3.30653 0 2.16193 0.474107 1.31802 1.31802C0.474106 2.16193 0 3.30653 0 4.5V81C0 82.1935 0.474106 83.3381 1.31802 84.182C2.16193 85.0259 3.30653 85.5 4.5 85.5H14.13C15.1663 89.3132 17.4285 92.6794 20.5677 95.0793C23.7069 97.4792 27.5485 98.7795 31.5 98.7795C35.4515 98.7795 39.2931 97.4792 42.4323 95.0793C45.5715 92.6794 47.8337 89.3132 48.87 85.5H77.13C78.1663 89.3132 80.4285 92.6794 83.5677 95.0793C86.7069 97.4792 90.5485 98.7795 94.5 98.7795C98.4515 98.7795 102.293 97.4792 105.432 95.0793C108.571 92.6794 110.834 89.3132 111.87 85.5H121.5C122.693 85.5 123.838 85.0259 124.682 84.182C125.526 83.3381 126 82.1935 126 81V49.5C125.999 48.8968 125.876 48.3 125.64 47.745ZM94.5 22.5H105.03L114.66 45H94.5V22.5ZM31.5 90C29.72 90 27.9799 89.4722 26.4999 88.4832C25.0198 87.4943 23.8663 86.0887 23.1851 84.4442C22.5039 82.7996 22.3257 80.99 22.6729 79.2442C23.0202 77.4984 23.8774 75.8947 25.136 74.636C26.3947 73.3774 27.9984 72.5202 29.7442 72.1729C31.49 71.8257 33.2996 72.0039 34.9441 72.6851C36.5887 73.3663 37.9943 74.5198 38.9832 75.9999C39.9722 77.4799 40.5 79.22 40.5 81C40.5 83.387 39.5518 85.6761 37.864 87.364C36.1761 89.0518 33.8869 90 31.5 90ZM77.13 76.5H48.87C47.8337 72.6868 45.5715 69.3206 42.4323 66.9207C39.2931 64.5208 35.4515 63.2205 31.5 63.2205C27.5485 63.2205 23.7069 64.5208 20.5677 66.9207C17.4285 69.3206 15.1663 72.6868 14.13 76.5H9V9H85.5V65.52C83.4509 66.7093 81.6567 68.2914 80.2204 70.1756C78.7841 72.0598 77.7339 74.209 77.13 76.5ZM94.5 90C92.72 90 90.9799 89.4722 89.4999 88.4832C88.0198 87.4943 86.8663 86.0887 86.1851 84.4442C85.5039 82.7996 85.3257 80.99 85.6729 79.2442C86.0202 77.4984 86.8774 75.8947 88.136 74.636C89.3947 73.3774 90.9984 72.5202 92.7442 72.1729C94.49 71.8257 96.2996 72.0039 97.9442 72.6851C99.5887 73.3663 100.994 74.5198 101.983 75.9999C102.972 77.4799 103.5 79.22 103.5 81C103.5 83.387 102.552 85.6761 100.864 87.364C99.1761 89.0518 96.8869 90 94.5 90ZM117 76.5H111.87C110.875 72.6459 108.63 69.2303 105.487 66.7876C102.344 64.3449 98.4805 63.0129 94.5 63V54H117V76.5Z" fill="#E8927D"/>
</svg>
