<svg width="122" height="122" viewBox="0 0 122 122" fill="none" xmlns="http://www.w3.org/2000/svg">
<path d="M99.125 114.375H41.9375C39.9158 114.373 37.9776 113.569 36.548 112.139C35.1185 110.71 34.3145 108.772 34.3125 106.75V83.875H41.9375V106.75H99.125V22.875H64.8125V15.25H99.125C101.147 15.252 103.085 16.056 104.514 17.4855C105.944 18.9151 106.748 20.8533 106.75 22.875V106.75C106.748 108.772 105.944 110.71 104.514 112.139C103.085 113.569 101.147 114.373 99.125 114.375Z" fill="#91C6DD"/>
<path d="M64.8125 38.125H91.5V45.75H64.8125V38.125Z" fill="#91C6DD"/>
<path d="M61 57.1875H91.5V64.8125H61V57.1875Z" fill="#91C6DD"/>
<path d="M57.1875 76.25H91.5V83.875H57.1875V76.25Z" fill="#91C6DD"/>
<path d="M34.3125 72.4375C29.2584 72.4325 24.4127 70.4225 20.8389 66.8487C17.265 63.2748 15.255 58.4291 15.25 53.375V11.4375H22.875V53.375C22.875 56.4084 24.08 59.3176 26.225 61.4625C28.3699 63.6075 31.2791 64.8125 34.3125 64.8125C37.3459 64.8125 40.2551 63.6075 42.4 61.4625C44.545 59.3176 45.75 56.4084 45.75 53.375V19.0625C45.75 18.0514 45.3483 17.0816 44.6333 16.3667C43.9184 15.6517 42.9486 15.25 41.9375 15.25C40.9264 15.25 39.9566 15.6517 39.2417 16.3667C38.5267 17.0816 38.125 18.0514 38.125 19.0625V57.1875H30.5V19.0625C30.5 16.0291 31.705 13.1199 33.85 10.975C35.9949 8.83002 38.9041 7.625 41.9375 7.625C44.9709 7.625 47.8801 8.83002 50.025 10.975C52.17 13.1199 53.375 16.0291 53.375 19.0625V53.375C53.37 58.4291 51.36 63.2748 47.7861 66.8487C44.2123 70.4225 39.3666 72.4325 34.3125 72.4375Z" fill="#91C6DD"/>
</svg>
