<svg width="104" height="103" viewBox="0 0 104 103" fill="none" xmlns="http://www.w3.org/2000/svg">
<path d="M64.5096 4.96631C65.9644 3.47549 67.7007 2.28826 69.6178 1.47344C71.5348 0.658619 73.5946 0.232418 75.6776 0.219539C77.7606 0.20666 79.8254 0.607361 81.7524 1.39841C83.6794 2.18946 85.4302 3.35513 86.9033 4.82785C88.3765 6.30057 89.5426 8.05104 90.3342 9.9778C91.1259 11.9046 91.5271 13.9693 91.5149 16.0523C91.5026 18.1353 91.077 20.1951 90.2627 22.1124C89.4485 24.0297 88.2617 25.7663 86.7713 27.2216L78.5825 35.404L79.1362 35.9576C80.3323 37.1533 81.2812 38.5729 81.9286 40.1353C82.576 41.6978 82.9092 43.3725 82.9092 45.0638C82.9092 46.7551 82.576 48.4298 81.9286 49.9922C81.2812 51.5547 80.3323 52.9743 79.1362 54.17L69.8658 63.4339C69.2587 64.0202 68.4457 64.3447 67.6017 64.3373C66.7577 64.33 65.9504 63.9915 65.3536 63.3947C64.7568 62.7979 64.4182 61.9905 64.4109 61.1466C64.4036 60.3026 64.728 59.4895 65.3143 58.8824L74.5847 49.612C75.7916 48.4048 76.4696 46.7676 76.4696 45.0606C76.4696 43.3535 75.7916 41.7163 74.5847 40.5091L74.031 39.9554L31.2458 82.7471C30.8316 83.1591 30.3131 83.4507 29.7458 83.5904L3.99485 90.0282C3.43566 90.1671 2.84944 90.1534 2.29738 89.9884C1.74531 89.8235 1.24764 89.5133 0.856313 89.0904C0.464982 88.6675 0.194338 88.1474 0.0726306 87.5842C-0.0490768 87.021 -0.017386 86.4355 0.164395 85.8887L8.21157 61.7472C8.36851 61.2746 8.63296 60.8449 8.9841 60.4918L64.5161 4.96631H64.5096ZM82.2134 9.51779C80.4693 7.77625 78.1052 6.79809 75.6405 6.79809C73.1757 6.79809 70.8117 7.77625 69.0675 9.51779L14.0764 64.5025L8.12144 82.3608L27.3188 77.5647L82.2134 22.6701C83.9569 20.9257 84.9363 18.5603 84.9363 16.0939C84.9363 13.6276 83.9569 11.2622 82.2134 9.51779V9.51779Z" fill="#A898E8"/>
<path d="M7.83185 95.7064L8.16017 95.9511C12.9434 99.4274 20.0314 103 28.967 103C33.7502 103 38.1343 101.327 42.0291 99.112C45.9111 96.8974 49.5162 94.0262 52.7222 91.4189L53.4754 90.8073C56.4625 88.3738 59.0248 86.2944 61.381 84.9039C63.9754 83.3717 65.5269 83.1786 66.5762 83.5262C68.2822 84.0927 69.2543 85.4125 70.9475 91.0519C71.5075 92.9317 72.5118 94.9789 73.9796 96.6334C75.4539 98.2879 77.6427 99.7879 80.4689 99.7879C83.5204 99.7879 86.5397 98.3137 88.8701 96.9425C90.4088 96.0347 92.0568 94.8953 93.3959 93.9811C94.059 93.5305 94.6383 93.1249 95.0954 92.8223C96.8207 91.7086 98.2757 90.9875 99.2735 90.5498C99.7692 90.3309 100.149 90.1828 100.394 90.0991L100.651 90.009L100.69 89.9961C101.509 89.7562 102.2 89.2006 102.61 88.4515C103.02 87.7023 103.115 86.8211 102.875 86.0015C102.636 85.182 102.08 84.4913 101.331 84.0814C100.582 83.6715 99.7004 83.576 98.8808 83.8159H98.8744L98.8551 83.8288L98.81 83.8417L98.6748 83.8867L98.2242 84.0348C97.8443 84.17 97.3229 84.3695 96.6791 84.6528C94.9124 85.4377 93.2116 86.3635 91.5933 87.421C90.8401 87.9167 90.1126 88.4125 89.3916 88.9146C88.2006 89.7386 86.9903 90.5755 85.5998 91.3931C83.4045 92.6936 81.6727 93.3438 80.4689 93.3438C80.0826 93.3438 79.5032 93.1506 78.7951 92.3524C78.0209 91.4297 77.4486 90.3551 77.1148 89.1979C75.5698 84.0477 73.896 79.1807 68.617 77.4168C64.8316 76.155 61.1492 77.5648 58.1106 79.3545C55.3102 81.009 52.3681 83.4103 49.5033 85.7408L48.6664 86.4232C45.4347 89.0434 42.203 91.5991 38.8425 93.5176C35.4948 95.4232 32.2309 96.5626 28.967 96.5626C24.1644 96.5626 19.9799 95.2751 16.5164 93.5369L7.83185 95.7064V95.7064ZM99.7821 86.906L98.8808 83.8159L99.7821 86.906Z" fill="#A898E8"/>
</svg>
