<svg width="109" height="76" viewBox="0 0 109 76" fill="none" xmlns="http://www.w3.org/2000/svg">
<path d="M99.2122 0H10.2327C3.86483 0 0 2.10118 0 8.49412V66.6118C0 73.0047 1.64034 76 8.00816 76H100.547C106.909 76 109 73.0047 109 66.6118V8.49412C109 2.10118 105.574 0 99.2122 0ZM100.547 66.6118H8.00816V49.1765V31.7412H100.547V66.6118ZM100.547 25.9294H8.00816V17.2118V8.49412H100.547V25.9294ZM19.5755 43.9459V47.4329H23.0457V43.9459H19.5755ZM40.3967 50.9142V54.4071H47.3371V50.9142H50.8073V47.4271H54.2775V43.9401H47.3371V47.4271H43.8612V50.9142H40.3967ZM54.2775 54.4071V50.9142H50.8016V54.4071H54.2775ZM36.9265 54.4071V50.9142H29.9861V54.4071H36.9265ZM40.3967 47.4271H43.8669V43.9401H36.9265V50.9084H40.3967V47.4271ZM26.5101 50.9142H29.9861V47.4271H33.4563V43.9401H26.5159V47.4271H23.0457V50.9142H19.5755V54.4071H26.5101V50.9142Z" fill="#46C763"/>
</svg>
