<svg width="85" height="95" viewBox="0 0 85 95" fill="none" xmlns="http://www.w3.org/2000/svg">
<path d="M26.6944 9.44063C21.0394 10.9991 15.4229 12.6938 9.84969 14.5231C9.34078 14.688 8.8884 14.9924 8.54409 15.4018C8.19977 15.8112 7.97736 16.3091 7.90219 16.8387C4.61281 41.5209 12.2128 59.5294 21.2794 71.3925C25.1181 76.4654 29.6952 80.9345 34.8584 84.6509C36.9128 86.0997 38.7297 87.1447 40.1606 87.8156C40.8731 88.1541 41.455 88.3797 41.9003 88.5162C42.0951 88.5846 42.2959 88.6343 42.5 88.6647C42.7017 88.6319 42.9003 88.5823 43.0938 88.5162C43.545 88.3797 44.1269 88.1541 44.8394 87.8156C46.2644 87.1447 48.0872 86.0937 50.1416 84.6509C55.3047 80.9345 59.8819 76.4654 63.7206 71.3925C72.7872 59.5353 80.3872 41.5209 77.0978 16.8387C77.0233 16.3089 76.8012 15.8107 76.4567 15.4012C76.1123 14.9916 75.6596 14.6874 75.1503 14.5231C71.285 13.2584 64.7597 11.1981 58.3056 9.44656C51.715 7.65937 45.6528 6.33531 42.5 6.33531C39.3531 6.33531 33.285 7.65937 26.6944 9.44656V9.44063ZM25.115 3.325C31.5572 1.57344 38.4031 0 42.5 0C46.5969 0 53.4428 1.57344 59.885 3.325C66.4756 5.10625 73.1197 7.21406 77.0266 8.49062C78.66 9.03005 80.1082 10.0193 81.2047 11.3448C82.3012 12.6703 83.0016 14.2781 83.2253 15.9837C86.7641 42.5659 78.5525 62.2666 68.5894 75.2994C64.3645 80.8746 59.3268 85.7841 53.6447 89.8641C51.6799 91.2759 49.5982 92.5174 47.4222 93.575C45.7597 94.3588 43.9725 95 42.5 95C41.0275 95 39.2463 94.3588 37.5778 93.575C35.4018 92.5174 33.3201 91.2759 31.3553 89.8641C25.6733 85.784 20.6356 80.8745 16.4106 75.2994C6.4475 62.2666 -1.76406 42.5659 1.77469 15.9837C1.99846 14.2781 2.69882 12.6703 3.79532 11.3448C4.89182 10.0193 6.33998 9.03005 7.97344 8.49062C13.6449 6.63105 19.3604 4.90868 25.115 3.325V3.325Z" fill="#7DE2B8"/>
<path d="M59.4456 30.5544C59.7221 30.8302 59.9415 31.1578 60.0911 31.5185C60.2408 31.8792 60.3178 32.2658 60.3178 32.6563C60.3178 33.0468 60.2408 33.4335 60.0911 33.7941C59.9415 34.1548 59.7221 34.4824 59.4456 34.7582L41.6332 52.5707C41.3574 52.8472 41.0298 53.0665 40.6691 53.2162C40.3084 53.3658 39.9218 53.4429 39.5313 53.4429C39.1408 53.4429 38.7541 53.3658 38.3935 53.2162C38.0328 53.0665 37.7052 52.8472 37.4294 52.5707L28.5232 43.6644C28.2471 43.3884 28.0282 43.0607 27.8788 42.7001C27.7294 42.3394 27.6525 41.9529 27.6525 41.5626C27.6525 41.1722 27.7294 40.7857 27.8788 40.425C28.0282 40.0644 28.2471 39.7367 28.5232 39.4607C28.7992 39.1847 29.1269 38.9657 29.4875 38.8163C29.8481 38.6669 30.2347 38.5901 30.625 38.5901C31.0154 38.5901 31.4019 38.6669 31.7626 38.8163C32.1232 38.9657 32.4509 39.1847 32.7269 39.4607L39.5313 46.271L55.2419 30.5544C55.5177 30.278 55.8453 30.0586 56.206 29.9089C56.5666 29.7593 56.9533 29.6823 57.3438 29.6823C57.7343 29.6823 58.1209 29.7593 58.4816 29.9089C58.8423 30.0586 59.1699 30.278 59.4456 30.5544V30.5544Z" fill="#7DE2B8"/>
</svg>
